# xmcd
#
# Track frame offsets:
#	150
#	97406
#	122594
#	143679
#
# Disc length: 2447 seconds
#
# Revision: 1
# Processed by: cddbd v1.5.2PL0 Copyright (c) Steve Scherf et al.
# Submitted via: audiograbber 1.83.01
#
DISCID=34098d04
DTITLE=Grateful Dead - 74-05-14 Adams Field House, Missoula MT
DYEAR=1900
DGENRE=
TTITLE0=Playing In The Band
TTITLE1=US Blues
TTITLE2=El Paso
TTITLE3=Row Jimmy
EXTD=
EXTT0=
EXTT1=
EXTT2=
EXTT3=
PLAYORDER=
